<mxfile host="app.diagrams.net" modified="2024-01-21T19:09:54.180Z" agent="Mozilla/5.0 (Windows NT 10.0; Win64; x64) AppleWebKit/537.36 (KHTML, like Gecko) Chrome/120.0.0.0 Safari/537.36 OPR/106.0.0.0" version="22.1.21" etag="vgTGWl4Y-ve703jMNWSV" type="github">
  <diagram name="PÃ¡gina-1" id="52hgVGoVIKui3QYZb6EA">
    <mxGraphModel>
      <root>
        <mxCell id="0" />
        <mxCell id="1" parent="0" />
      </root>
    </mxGraphModel>
  </diagram>
</mxfile>
